<?xml version="1.0" encoding="UTF-8" standalone="no"?>
<!-- Created with Inkscape (http://www.inkscape.org/) -->

<svg
   width="131.70082mm"
   height="51.932938mm"
   viewBox="0 0 131.70082 51.932938"
   version="1.1"
   id="svg5"
   inkscape:version="1.2 (dc2aeda, 2022-05-15)"
   sodipodi:docname="Questlore Audio Logo.svg"
   xml:space="preserve"
   inkscape:export-filename="QL Logo 4.svg"
   inkscape:export-xdpi="215.95494"
   inkscape:export-ydpi="215.95494"
   xmlns:inkscape="http://www.inkscape.org/namespaces/inkscape"
   xmlns:sodipodi="http://sodipodi.sourceforge.net/DTD/sodipodi-0.dtd"
   xmlns="http://www.w3.org/2000/svg"
   xmlns:svg="http://www.w3.org/2000/svg"><sodipodi:namedview
     id="namedview7"
     pagecolor="#cdcdcd"
     bordercolor="#999999"
     borderopacity="1"
     inkscape:showpageshadow="0"
     inkscape:pageopacity="0"
     inkscape:pagecheckerboard="0"
     inkscape:deskcolor="#d1d1d1"
     inkscape:document-units="mm"
     showgrid="false"
     inkscape:zoom="0.64515723"
     inkscape:cx="420.82765"
     inkscape:cy="506.85319"
     inkscape:window-width="1440"
     inkscape:window-height="802"
     inkscape:window-x="0"
     inkscape:window-y="23"
     inkscape:window-maximized="0"
     inkscape:current-layer="g328"
     showguides="true"><inkscape:grid
       type="xygrid"
       id="grid146" /><sodipodi:guide
       position="65.516613,109.55045"
       orientation="1,0"
       id="guide518"
       inkscape:locked="false" /><sodipodi:guide
       position="28.453092,111.08521"
       orientation="0,-1"
       id="guide520"
       inkscape:locked="false" /></sodipodi:namedview><defs
     id="defs2" /><g
     id="g328"
     inkscape:label="Logo 1"
     style="display:inline;fill:#ffffff;fill-opacity:1"
     inkscape:groupmode="layer"
     inkscape:export-filename="Exports/Questlore Audio Logo.png"
     inkscape:export-xdpi="215.95494"
     inkscape:export-ydpi="215.95494"
     transform="translate(-39.434777,-99.333478)"><text
       xml:space="preserve"
       style="font-style:normal;font-variant:normal;font-weight:bold;font-stretch:normal;font-size:22.2722px;font-family:Athelas;-inkscape-font-specification:'Athelas, Bold';font-variant-ligatures:normal;font-variant-caps:normal;font-variant-numeric:normal;font-variant-east-asian:normal;display:inline;fill:#ffffff;fill-opacity:1;stroke-width:0.188149"
       x="76.101875"
       y="150.99915"
       id="text364"
       inkscape:label="'Audio'"><tspan
         sodipodi:role="line"
         id="tspan407"
         x="76.101875"
         y="150.99915"
         style="stroke-width:0.188149">Audio</tspan></text><path
       id="path2434"
       style="display:inline;opacity:1;fill:#ffffff;fill-opacity:1;stroke-width:0.264583"
       d="m 143.44499,121.5161 c -1.36886,0.002 -4.62342,0.96784 -5.61413,2.84272 l -19.6603,0.009 -25.914692,0.0103 -25.914698,0.0103 c -0.952918,2.60464 -2.299833,3.54208 -3.721736,4.17443 0.696227,0.2223 4.752618,0.0644 5.94589,-0.6594 0.753269,0.46372 2.171738,0.87468 4.676717,1.09916 -8.487523,2.58581 -20.37124,2.15787 -24.297225,-4.54907 l -8.532296,-0.10542 c 3.266204,13.65984 31.975323,13.52588 36.383826,13.55266 0.746782,-2.41195 6.282357,-4.28104 13.259656,-4.29121 15.952998,-0.0233 31.920478,0.003 47.878728,0.003 2.03018,4.14338 7.19474,5.00951 10.90011,5.00951 6.82437,0.0227 11.02165,-2.22997 12.32483,-7.691 0.0558,0.0299 0.1196,0.0475 0.18759,0.0475 h 0.10697 c 0.15183,0 0.28282,-0.085 0.34933,-0.20981 l 3.55017,1.53169 4.64623,-3.32538 -4.64623,-3.31452 -3.5512,1.53634 c -0.0668,-0.1237 -0.1973,-0.20723 -0.3483,-0.20723 h -0.10697 c -0.10865,0 -0.20712,0.0433 -0.27854,0.11369 -0.20165,-1.06504 -1.17975,-1.92091 -1.97047,-2.12609 0.23257,0.96492 0.23257,1.74715 0.2465,2.28404 l -16.85732,-0.0106 c -0.006,-1.97526 0.29785,-4.14118 0.95756,-5.73453 z m -14.96239,6.1004 c 0.59105,0.73837 1.87446,1.35981 3.62975,1.36684 -1.76166,0.006 -3.0285,0.62063 -3.63027,1.35134 -0.87613,-1.002 -6.97179,-1.33067 -9.52758,-1.35082 2.55539,4.5e-4 8.64886,-0.35358 9.5281,-1.36736 z m 36.74091,0.48524 1.39526,0.87747 -1.40301,0.88211 -1.17719,-0.87746 z m -22.54333,2.59829 16.49635,-0.055 c -0.96731,3.8791 -4.54112,5.33622 -8.9915,5.15037 -5.03997,-0.21048 -7.34662,-2.69139 -7.50485,-5.09533 z"
       sodipodi:nodetypes="sccccccccccccccsscccccssccccssccccccccccccscc"
       inkscape:label="Sword across" /><text
       xml:space="preserve"
       style="font-style:normal;font-variant:normal;font-weight:bold;font-stretch:normal;font-size:31.3201px;font-family:Athelas;-inkscape-font-specification:'Athelas, Bold';font-variant-ligatures:normal;font-variant-caps:normal;font-variant-numeric:normal;font-variant-east-asian:normal;display:inline;fill:#ffffff;fill-opacity:1;stroke-width:0.264583"
       x="38.401215"
       y="121.25755"
       id="text401"
       inkscape:label="'Questlore'"><tspan
         sodipodi:role="line"
         id="tspan399"
         style="fill:#ffffff;fill-opacity:1;stroke-width:0.264583"
         x="38.401215"
         y="121.25755">Questlore</tspan></text></g><g
     id="g335"
     inkscape:label="Logo 2"
     style="display:none"
     transform="translate(-44.279261,-27.411531)"
     inkscape:groupmode="layer"
     sodipodi:insensitive="true"><path
       id="path313"
       style="display:inline;opacity:1;fill:#000000;stroke-width:0.264583"
       d="m 108.79702,93.414407 c 0.002,1.36886 0.96784,4.62342 2.84272,5.61413 l 0.009,19.660293 0.0103,25.9147 0.0103,25.91469 c 2.60465,0.95292 3.54209,2.29984 4.17444,3.72174 0.2223,-0.69623 0.0644,-4.75262 -0.6594,-5.94589 0.46372,-0.75327 0.87468,-2.17174 1.09916,-4.67672 2.58581,8.48753 2.15787,20.37124 -4.54908,24.29723 l -0.10542,8.53229 c 13.65985,-3.2662 13.52589,-31.97532 13.55267,-36.38382 -2.41195,-0.74678 -4.28104,-6.28236 -4.29121,-13.25966 -0.0233,-15.953 0.003,-31.92048 0.003,-47.878723 4.14338,-2.03018 5.00951,-7.19474 5.00951,-10.90011 0.0227,-6.82437 -2.22997,-11.02165 -7.691,-12.32483 0.0299,-0.0558 0.0475,-0.1196 0.0475,-0.18759 v -0.10697 c 0,-0.15183 -0.085,-0.28282 -0.20981,-0.34933 l 1.53169,-3.55017 -3.32538,-4.64623 -3.31452,4.64623 1.53634,3.5512 c -0.1237,0.0668 -0.20723,0.1973 -0.20723,0.3483 v 0.10697 c 0,0.10865 0.0433,0.20712 0.11369,0.27854 -1.06504,0.20165 -1.92091,1.17975 -2.12609,1.97047 0.96492,-0.23257 1.74715,-0.23257 2.28404,-0.2465 l -0.0106,16.85732 c -1.97526,0.006 -4.14119,-0.29785 -5.73454,-0.95756 z m 6.10041,14.962383 c 0.73837,-0.59105 1.35981,-1.87446 1.36684,-3.62975 0.006,1.76166 0.62063,3.0285 1.35134,3.63027 -1.002,0.87613 -1.33067,6.97179 -1.35082,9.52758 4.5e-4,-2.55539 -0.35358,-8.64886 -1.36736,-9.5281 z m 0.48524,-36.740903 0.87747,-1.39526 0.88211,1.40301 -0.87746,1.17719 z m 2.59829,22.54333 -0.055,-16.49635 c 3.8791,0.96731 5.33622,4.54112 5.15037,8.9915 -0.21048,5.03997 -2.69139,7.34662 -5.09533,7.50485 z"
       sodipodi:nodetypes="sccccccccccccccsscccccssccccssccccccccccccscc"
       inkscape:label="Sword upright" /></g><g
     id="g347"
     inkscape:label="Logo 2 dif"
     style="display:none"
     transform="translate(-28.821362,-32.300296)"
     inkscape:groupmode="layer"
     sodipodi:insensitive="true"><path
       id="text345"
       style="font-style:normal;font-variant:normal;font-weight:bold;font-stretch:normal;font-size:103.507px;font-family:Athelas;-inkscape-font-specification:'Athelas, Bold';font-variant-ligatures:normal;font-variant-caps:normal;font-variant-numeric:normal;font-variant-east-asian:normal;display:inline;fill:#000000;stroke-width:0.874395"
       d="m 116.25595,66.859485 -3.31452,4.646228 1.53634,3.551204 c -0.1237,0.0668 -0.20723,0.1973 -0.20723,0.348299 v 0.106971 c 0,0.10865 0.0433,0.207116 0.11369,0.278536 -1.06504,0.201649 -1.92079,1.179703 -2.12597,1.970422 0.96492,-0.23257 1.74721,-0.232567 2.2841,-0.246497 l -0.0109,16.857369 c -1.97526,0.006 -4.14118,-0.297855 -5.73453,-0.957564 0.002,1.368859 0.96784,4.623419 2.84272,5.614128 l 0.009,19.660299 0.0103,25.9147 0.0103,25.91469 c 2.60465,0.95292 3.54208,2.29984 4.17443,3.72174 0.22229,-0.69623 0.0644,-4.75262 -0.6594,-5.94589 0.46372,-0.75327 0.87468,-2.17174 1.09916,-4.67672 2.58581,8.48752 2.15787,20.37124 -4.54907,24.29723 l -0.10542,8.53229 c 12.78038,-3.05591 13.48613,-28.37726 13.54594,-35.23661 -0.004,0.43199 -0.0101,0.9319 -0.0217,1.49914 h 12.90774 c 0.89706,0 1.93216,0.0343 3.10524,0.10335 1.24208,0.069 2.44996,0.10335 3.62304,0.10335 1.17305,0.069 2.24255,0.13822 3.20858,0.20723 1.03507,0.069 1.82872,0.10335 2.38074,0.10335 0.41403,0 0.7934,-0.10356 1.13843,-0.31058 0.41402,-0.20701 0.6555,-0.7243 0.7245,-1.55236 0.34502,-2.48412 0.72441,-5.00299 1.13844,-7.55612 0.483,-2.62218 1.00083,-5.03741 1.55287,-7.24556 l -1.44901,-0.62115 c -0.483,-0.20701 -0.89728,-0.31057 -1.2423,-0.31057 -0.82806,0 -1.34535,0.27633 -1.55236,0.82837 -0.75905,2.00113 -1.55268,3.7263 -2.38073,5.1754 -0.75905,1.38005 -1.62189,2.51823 -2.58796,3.41529 -0.96603,0.89706 -2.10472,1.55278 -3.41581,1.96681 -1.24208,0.34502 -2.72525,0.51779 -4.45037,0.51779 h -3.93361 c -4.27827,0 -7.34871,-0.24147 -9.21184,-0.7245 -0.56708,-0.14702 -1.0473,-0.33911 -1.44178,-0.57568 -0.73578,-0.40235 -1.32919,-1.20262 -1.65674,-2.39985 0.0107,0.0479 0.0222,0.0936 0.0331,0.14108 -0.0109,-0.0475 -0.0224,-0.0932 -0.0331,-0.14108 -2.8e-4,-0.001 -7.6e-4,-0.002 -10e-4,-0.004 -1.8e-4,-6.9e-4 -3.2e-4,-10e-4 -5.1e-4,-0.002 -0.45192,-2.02638 -0.71452,-4.42499 -0.7183,-7.0249 -0.0233,-15.95298 0.003,-31.9205 0.003,-47.878729 4.14337,-2.030178 5.00951,-7.194743 5.00951,-10.90011 0.0227,-6.824363 -2.22998,-11.02165 -7.691,-12.324829 0.0299,-0.0558 0.0475,-0.119595 0.0475,-0.187585 v -0.106971 c 0,-0.151829 -0.085,-0.282822 -0.20981,-0.349332 l 1.53169,-3.550171 z m 0.004,3.381189 0.88211,1.403015 -0.87746,1.177189 -0.88212,-1.184941 z m 1.66605,7.44244 c 3.87909,0.967309 5.33592,4.540807 5.15007,8.991182 -0.21048,5.039965 -2.69136,7.346738 -5.0953,7.504968 z m -1.66192,27.063976 c 0.006,1.76166 0.62063,3.0285 1.35134,3.63027 -1.002,0.87613 -1.33067,6.9718 -1.35082,9.52759 4.5e-4,-2.55539 -0.35358,-8.64886 -1.36736,-9.5281 0.73837,-0.59105 1.35981,-1.87447 1.36684,-3.62976 z m 5.56349,49.96956 c 0.0201,0.0757 0.0398,0.15194 0.0605,0.22635 -0.0207,-0.0745 -0.0403,-0.15058 -0.0605,-0.22635 z m 0.28422,0.97617 c 0.0236,0.0732 0.0487,0.14327 0.0729,0.21498 -0.0242,-0.0718 -0.0492,-0.14173 -0.0729,-0.21498 z m 0.31471,0.8878 c 0.007,0.0189 0.0143,0.0381 0.0217,0.0568 -0.007,-0.0188 -0.0143,-0.0379 -0.0217,-0.0568 z m 0.32917,0.77308 c 0.006,0.0133 0.0124,0.0271 0.0186,0.0403 -0.006,-0.0133 -0.0124,-0.027 -0.0186,-0.0403 z m 0.35967,0.70074 c 0.004,0.007 0.008,0.013 0.0114,0.0196 -0.004,-0.007 -0.008,-0.013 -0.0114,-0.0196 z m 0.37517,0.59531 c 0.008,0.0113 0.0158,0.0224 0.0238,0.0336 -0.008,-0.0112 -0.0158,-0.0222 -0.0238,-0.0336 z m 0.17984,0.24339 c 0.009,0.0119 0.0181,0.0245 0.0274,0.0362 -0.009,-0.0117 -0.0182,-0.0243 -0.0274,-0.0362 z m 0.20929,0.25322 c 0.009,0.01 0.0173,0.0189 0.0258,0.0284 -0.009,-0.01 -0.0173,-0.0188 -0.0258,-0.0284 z m 0.40566,0.40101 c 0.0114,0.01 0.0232,0.0194 0.0346,0.0289 -0.0115,-0.01 -0.0232,-0.0192 -0.0346,-0.0289 z m 0.22531,0.1757 c 0.009,0.006 0.0172,0.0121 0.0258,0.0181 -0.009,-0.006 -0.0172,-0.012 -0.0258,-0.0181 z m 0.20205,0.12971 c 0.0111,0.006 0.0219,0.0139 0.0331,0.0202 -0.0111,-0.006 -0.022,-0.0137 -0.0331,-0.0202 z m 0.23099,0.11937 c 0.0108,0.005 0.0217,0.009 0.0326,0.0139 -0.0109,-0.005 -0.0217,-0.009 -0.0326,-0.0139 z" /></g><g
     id="g812"
     inkscape:label="Logo 2 dif 2"
     style="display:none;opacity:1"
     transform="translate(-28.837839,-32.257539)"
     inkscape:groupmode="layer"
     sodipodi:insensitive="true"><path
       id="path810"
       style="font-style:normal;font-variant:normal;font-weight:bold;font-stretch:normal;font-size:103.507px;font-family:Athelas;-inkscape-font-specification:'Athelas, Bold';font-variant-ligatures:normal;font-variant-caps:normal;font-variant-numeric:normal;font-variant-east-asian:normal;display:inline;fill:#000000;stroke-width:0.857115"
       d="m 117.41548,69.04765 -3.24901,4.554407 1.50599,3.481024 c -0.12126,0.06548 -0.20314,0.193401 -0.20314,0.341415 v 0.104862 c 0,0.106507 0.0423,0.203023 0.11141,0.273032 -1.04399,0.197663 -1.88283,1.156389 -2.08396,1.931484 0.94586,-0.227983 1.71268,-0.227971 2.23897,-0.241629 l -0.0113,16.524236 c -1.93622,0.0054 -4.05934,-0.291965 -5.6212,-0.938633 0.002,1.341812 0.94871,4.532056 2.78654,5.503172 l 0.009,19.27176 0.01,25.40257 0.01,25.40257 c 2.55318,0.93408 3.47209,2.25438 4.09194,3.64818 0.2179,-0.68247 0.0632,-4.6587 -0.64636,-5.82839 0.45455,-0.73838 0.85738,-2.12881 1.07744,-4.58429 2.53469,8.31978 2.11522,19.96866 -4.45919,23.81705 l -0.10338,8.36368 c 12.52781,-2.99552 13.21961,-27.81646 13.27824,-34.54025 -0.003,0.42345 -0.01,0.91349 -0.0213,1.46951 h 12.65266 c 0.87933,0 1.89398,0.0336 3.04387,0.10123 1.21753,0.0677 2.40154,0.10134 3.55145,0.10134 1.14987,0.0677 2.19822,0.13548 3.14516,0.20313 1.01463,0.0677 1.79259,0.10134 2.33369,0.10134 0.40586,0 0.77773,-0.10156 1.11593,-0.30444 0.40585,-0.20292 0.64256,-0.70999 0.7102,-1.52168 0.33819,-2.43503 0.71009,-4.90411 1.11593,-7.4068 0.47345,-2.57035 0.98106,-4.93785 1.52219,-7.10238 l -1.42039,-0.60886 c -0.47344,-0.20291 -0.87954,-0.30443 -1.21773,-0.30443 -0.8117,0 -1.31878,0.27088 -1.5217,0.81201 -0.74405,1.96157 -1.52199,3.65264 -2.33368,5.0731 -0.74404,1.35278 -1.58983,2.46848 -2.53682,3.3478 -0.94692,0.87935 -2.06312,1.52211 -3.3483,1.92795 -1.21753,0.33819 -2.67138,0.50755 -4.36242,0.50755 h -3.85587 c -4.19371,0 -7.20348,-0.23669 -9.0298,-0.71017 -0.55586,-0.14412 -1.0266,-0.33242 -1.41328,-0.56431 -0.72124,-0.3944 -1.30291,-1.17886 -1.62399,-2.35242 0.0113,0.0468 0.0217,0.0918 0.0323,0.13829 -0.0113,-0.0465 -0.022,-0.0912 -0.0323,-0.13829 -2.8e-4,-0.001 -7.5e-4,-0.002 -10e-4,-0.003 -1.7e-4,-6.8e-4 -3e-4,-10e-4 -5.1e-4,-0.002 -0.44298,-1.98633 -0.70038,-4.33753 -0.70409,-6.88608 -0.0228,-15.63769 0.003,-31.28966 0.003,-46.93252 4.0615,-1.990053 4.91052,-7.052553 4.91052,-10.684706 0.0223,-6.689506 -2.1859,-10.803837 -7.539,-12.081262 0.0293,-0.0547 0.0465,-0.117234 0.0465,-0.183879 v -0.104862 c 0,-0.148827 -0.0832,-0.277231 -0.20565,-0.342428 l 1.50141,-3.480012 z m 0.003,3.314368 0.86468,1.375288 -0.86012,1.153925 -0.86468,-1.161524 z m 1.63313,7.295356 c 3.80243,0.948197 5.23046,4.451081 5.04829,8.813505 -0.20631,4.940366 -2.63816,7.20155 -4.9946,7.356661 z m -1.62908,26.529136 c 0.005,1.72685 0.60838,2.96866 1.32463,3.55853 -0.98219,0.85882 -1.30436,6.83403 -1.32412,9.3393 4.4e-4,-2.50488 -0.3466,-8.47793 -1.34034,-9.33979 0.72379,-0.57938 1.33295,-1.83742 1.33983,-3.55804 z m 5.45355,48.98206 c 0.0198,0.0742 0.039,0.14893 0.0593,0.22187 -0.0202,-0.073 -0.0394,-0.1476 -0.0593,-0.22187 z m 0.27859,0.95687 c 0.0231,0.0717 0.0477,0.14043 0.0714,0.21073 -0.0237,-0.0703 -0.0482,-0.13893 -0.0714,-0.21073 z m 0.3085,0.87026 c 0.006,0.0185 0.0141,0.0373 0.0212,0.0558 -0.006,-0.0184 -0.0141,-0.0372 -0.0212,-0.0558 z m 0.32266,0.7578 c 0.005,0.0131 0.0121,0.0265 0.0183,0.0394 -0.005,-0.013 -0.012,-0.0264 -0.0183,-0.0394 z m 0.35256,0.68689 c 0.003,0.005 0.006,0.0128 0.0113,0.0193 -0.003,-0.005 -0.006,-0.0128 -0.0113,-0.0193 z m 0.36775,0.58354 c 0.006,0.0113 0.0156,0.022 0.0232,0.0329 -0.006,-0.0113 -0.0156,-0.0219 -0.0232,-0.0329 z m 0.1763,0.23859 c 0.009,0.0121 0.0178,0.0241 0.027,0.0356 -0.009,-0.0113 -0.0178,-0.0239 -0.027,-0.0356 z m 0.20515,0.24821 c 0.009,0.01 0.017,0.0185 0.0254,0.0278 -0.009,-0.01 -0.0169,-0.0184 -0.0254,-0.0278 z m 0.39765,0.3931 c 0.0113,0.01 0.0227,0.019 0.034,0.0283 -0.0113,-0.01 -0.0227,-0.0188 -0.034,-0.0283 z m 0.22084,0.17222 c 0.009,0.005 0.0168,0.0121 0.0254,0.0177 -0.009,-0.005 -0.0168,-0.0121 -0.0254,-0.0177 z m 0.19806,0.12715 c 0.0113,0.005 0.0214,0.0135 0.0323,0.0198 -0.0113,-0.005 -0.0215,-0.0134 -0.0323,-0.0198 z m 0.22643,0.11707 c 0.0113,0.004 0.0212,0.01 0.0319,0.0136 -0.0113,-0.004 -0.0213,-0.009 -0.0319,-0.0136 z" /></g><g
     id="g851"
     inkscape:label="Logo 2 dif 3"
     style="display:none"
     transform="translate(-37.596923,-47.162079)"
     inkscape:groupmode="layer"
     sodipodi:insensitive="true"><text
       xml:space="preserve"
       style="font-style:normal;font-variant:normal;font-weight:bold;font-stretch:normal;font-size:103.507px;font-family:Athelas;-inkscape-font-specification:'Athelas, Bold';font-variant-ligatures:normal;font-variant-caps:normal;font-variant-numeric:normal;font-variant-east-asian:normal;display:inline;fill:#000000;stroke-width:0.874395"
       x="34.435074"
       y="162.70921"
       id="text843"
       inkscape:label="text843"><tspan
         sodipodi:role="line"
         id="tspan841"
         style="stroke-width:0.874395"
         x="34.435074"
         y="162.70921">Q</tspan></text><text
       xml:space="preserve"
       style="font-style:normal;font-variant:normal;font-weight:bold;font-stretch:normal;font-size:103.507px;font-family:Athelas;-inkscape-font-specification:'Athelas, Bold';font-variant-ligatures:normal;font-variant-caps:normal;font-variant-numeric:normal;font-variant-east-asian:normal;display:inline;fill:#000000;stroke-width:0.874395"
       x="111.69347"
       y="162.70921"
       id="text847"><tspan
         sodipodi:role="line"
         id="tspan845"
         style="stroke-width:0.874395"
         x="111.69347"
         y="162.70921">L</tspan></text></g><g
     inkscape:groupmode="layer"
     id="layer3"
     inkscape:label="Logo 2 dif 4"
     style="display:none"
     sodipodi:insensitive="true"
     transform="translate(-39.434777,-99.333478)"><text
       xml:space="preserve"
       style="font-style:normal;font-variant:normal;font-weight:bold;font-stretch:normal;font-size:103.507px;font-family:Athelas;-inkscape-font-specification:'Athelas, Bold';font-variant-ligatures:normal;font-variant-caps:normal;font-variant-numeric:normal;font-variant-east-asian:normal;display:inline;fill:#000000;stroke-width:0.874395"
       x="34.435074"
       y="162.70921"
       id="text461"
       inkscape:label="text843"
       transform="translate(1.960833,52.358065)"><tspan
         sodipodi:role="line"
         id="tspan459"
         style="stroke-width:0.874395"
         x="34.435074"
         y="162.70921">Q</tspan></text><path
       id="text454"
       style="font-style:normal;font-variant:normal;font-weight:bold;font-stretch:normal;font-size:103.507px;font-family:Athelas;-inkscape-font-specification:'Athelas, Bold';font-variant-ligatures:normal;font-variant-caps:normal;font-variant-numeric:normal;font-variant-east-asian:normal;display:inline;fill:#000000;stroke-width:0.874395"
       d="m 116.97248,94.912016 c -0.13801,0.345023 -0.20723,0.724404 -0.20723,1.138431 v 0.931726 c 0,0.966065 0.34504,1.552569 1.03508,1.759583 1.4491,0.207014 2.58776,0.448485 3.41581,0.724504 0.89706,0.207013 1.55278,0.48335 1.96681,0.82837 0.41403,0.34503 0.68985,0.75876 0.82786,1.24179 0.13801,0.41403 0.20722,0.96618 0.20722,1.65623 v 51.8573 c 0,1.38009 -0.58651,2.34597 -1.75958,2.89801 -1.10408,0.55204 -2.96767,1.06933 -5.58984,1.55236 -0.69005,0.069 -1.03508,0.62116 -1.03508,1.65623 v 1.03508 c 0,0.41403 0.0692,0.75906 0.20722,1.03508 2.07014,-0.13801 4.38181,-0.27592 6.93498,-0.41393 2.62217,-0.069 4.93384,-0.10335 6.93497,-0.10335 h 23.49624 c 0.89706,0 1.93216,0.0343 3.10524,0.10335 1.24208,0.069 2.44944,0.10335 3.62252,0.10335 1.17308,0.069 2.24252,0.13822 3.20859,0.20723 1.03507,0.069 1.8287,0.10335 2.38073,0.10335 0.41403,0 0.79341,-0.10356 1.13843,-0.31058 0.41403,-0.20701 0.65602,-0.7243 0.72502,-1.55236 0.34503,-2.48416 0.72441,-5.00295 1.13844,-7.55612 0.48303,-2.62218 1.00032,-5.03741 1.55236,-7.24556 l -1.44901,-0.62115 c -0.48303,-0.20701 -0.89676,-0.31057 -1.24179,-0.31057 -0.82805,0 -1.34586,0.27633 -1.55287,0.82837 -0.75905,2.00113 -1.55268,3.7263 -2.38074,5.17539 -0.75905,1.3801 -1.62137,2.51876 -2.58743,3.41582 -0.96607,0.89706 -2.10473,1.55226 -3.41582,1.96629 -1.24208,0.34502 -2.72577,0.51779 -4.45089,0.51779 h -3.93309 c -4.27829,0 -7.34923,-0.24147 -9.21236,-0.7245 -1.86312,-0.48303 -2.79466,-1.44944 -2.79466,-2.89853 v -50.51113 c 0,-1.38009 0.48294,-2.38084 1.44901,-3.00188 1.03507,-0.69005 3.03657,-1.242206 6.00376,-1.656234 0.69005,-0.207014 1.03508,-0.793518 1.03508,-1.759583 0,-0.207013 -0.0349,-0.517698 -0.10387,-0.931726 0,-0.414027 -0.0343,-0.793408 -0.10335,-1.138431 -1.10407,0.069 -2.34629,0.138217 -3.72639,0.207222 -1.31108,0.06901 -2.65635,0.137701 -4.03644,0.206706 -1.31109,0 -2.58766,0.03486 -3.82974,0.103869 h -3.31246 c -1.93213,0 -4.14024,-0.03486 -6.6244,-0.103869 -2.48417,-0.138009 -4.83019,-0.275919 -7.03833,-0.413928 z m 14.11283,5.495784 1.45572,2.04019 -0.67489,1.55959 c 0.0543,0.0293 0.0909,0.0866 0.0909,0.15297 v 0.047 c -1e-5,0.0477 -0.0192,0.0912 -0.0501,0.12248 0.46772,0.0885 0.84369,0.51781 0.9338,0.86506 -0.42375,-0.10213 -0.76725,-0.10197 -1.00304,-0.108 l 0.004,7.40316 c 0.86728,0.002 1.81798,-0.13104 2.51768,-0.42065 -8.8e-4,0.60116 -0.42512,2.03042 -1.2485,2.46549 l -0.004,8.6341 -0.004,11.3807 -0.004,11.3807 c -1.14387,0.41849 -1.55578,1.01007 -1.83348,1.63452 -0.0976,-0.30577 -0.0279,-2.08717 0.28991,-2.61121 -0.20364,-0.33081 -0.38407,-0.95353 -0.48266,-2.05362 -1.13559,3.72742 -0.94765,8.946 1.99781,10.67015 l 0.046,3.74706 c -5.99889,-1.4344 -5.9398,-14.0423 -5.95157,-15.97835 1.05924,-0.32795 1.88016,-2.75874 1.88463,-5.8229 0.0107,-7.00597 -0.001,-14.01836 -0.001,-21.02663 -1.81962,-0.89159 -2.20038,-3.15953 -2.20038,-4.78679 -0.01,-2.99701 0.97981,-4.84028 3.37809,-5.41259 -0.0132,-0.0245 -0.0212,-0.0528 -0.0212,-0.0827 v -0.047 c 2e-5,-0.0667 0.037,-0.12428 0.092,-0.15348 l -0.67231,-1.55908 z m -0.003,1.48467 -0.38757,0.6165 0.3855,0.51676 0.38706,-0.52038 z m -0.73174,3.26853 c -1.70355,0.42479 -2.34351,1.99415 -2.26188,3.9486 0.0924,2.21338 1.18188,3.22642 2.23759,3.29592 z m 0.72967,11.88558 c -0.002,0.77365 -0.27233,1.32996 -0.59324,1.59422 0.44005,0.38477 0.58439,3.06184 0.59324,4.18424 -2e-4,-1.12223 0.15527,-3.79811 0.60048,-4.18424 -0.32426,-0.25956 -0.5974,-0.82336 -0.60048,-1.59422 z"
       transform="translate(1.960833,52.358065)" /></g><g
     inkscape:groupmode="layer"
     id="layer4"
     inkscape:label="Logo 2 dif 5"
     style="display:none"
     sodipodi:insensitive="true"
     transform="translate(-39.434777,-99.333478)"><path
       id="text855"
       style="font-style:normal;font-variant:normal;font-weight:bold;font-stretch:normal;font-size:103.507px;font-family:Athelas;-inkscape-font-specification:'Athelas, Bold';font-variant-ligatures:normal;font-variant-caps:normal;font-variant-numeric:normal;font-variant-east-asian:normal;display:inline;fill:#000000;stroke-width:0.874395"
       inkscape:label="text843"
       d="m 72.836152,94.187512 c -4.830322,0 -9.384447,0.931537 -13.662732,2.794661 -4.209281,1.79412 -7.901081,4.278567 -11.075293,7.452777 -3.174212,3.17421 -5.693004,6.86601 -7.556128,11.07529 -1.79412,4.20928 -2.691309,8.72906 -2.691309,13.55938 0,4.5543 0.690066,8.7634 2.070158,12.62765 1.449097,3.86426 3.450081,7.31459 6.003251,10.35079 2.622175,2.9672 5.727472,5.45113 9.315711,7.45226 3.657244,1.93213 7.694077,3.27791 12.110372,4.03696 3.588239,1.3801 6.693535,3.20882 9.31571,5.48597 2.69118,2.34616 5.278668,4.62296 7.762834,6.83111 2.55317,2.27715 5.244737,4.24379 8.073926,5.8999 2.898193,1.65611 6.348522,2.4846 10.350788,2.4846 2.27715,0 4.34683,-0.55215 6.20996,-1.65623 1.93213,-1.03507 3.65729,-2.4152 5.17539,-4.14031 -0.13801,-0.34503 -0.34461,-0.65571 -0.62063,-0.93173 -0.27602,-0.27602 -0.62105,-0.41393 -1.03508,-0.41393 -0.34502,0 -0.86283,0.10356 -1.55288,0.31058 -0.62104,0.27602 -1.3798,0.41393 -2.27686,0.41393 -0.89706,0 -1.89781,-0.13791 -3.00188,-0.41393 -1.03507,-0.20702 -2.34599,-0.86273 -3.9331,-1.96681 -1.5181,-1.03507 -2.933096,-2.13886 -4.244183,-3.31194 -1.242083,-1.17308 -2.58735,-2.34609 -4.036446,-3.51916 -1.380092,-1.10408 -2.932999,-2.17404 -4.658114,-3.20911 -1.725115,-0.96606 -3.760448,-1.75969 -6.106604,-2.38073 v -0.41393 c 3.864258,-1.03507 7.348935,-2.65667 10.454142,-4.86482 3.105207,-2.20815 5.727044,-4.76129 7.866185,-7.65948 2.20815,-2.9672 3.89897,-6.24475 5.07204,-9.83299 1.17308,-3.58824 1.75959,-7.31439 1.75959,-11.17865 0,-5.03734 -0.89719,-9.69554 -2.69131,-13.97382 -1.79412,-4.27829 -4.27805,-7.97009 -7.452261,-11.0753 -3.105207,-3.1052 -6.797007,-5.519917 -11.075293,-7.245032 -4.278285,-1.725115 -8.901623,-2.587956 -13.869954,-2.587956 z m 44.197298,0.724504 c -0.13801,0.345023 -0.2067,0.724404 -0.2067,1.138431 v 0.931726 c 0,0.966065 0.34503,1.552569 1.03508,1.759583 1.44909,0.207014 2.58775,0.448485 3.41581,0.724504 0.89706,0.207013 1.55226,0.48335 1.96629,0.82837 0.41403,0.34503 0.69036,0.75876 0.82837,1.24179 0.13801,0.41403 0.20671,0.96618 0.20671,1.65623 v 51.8573 c 0,1.38009 -0.58651,2.34597 -1.75959,2.89801 -1.10407,0.55204 -2.96714,1.06933 -5.58932,1.55236 -0.69004,0.069 -1.03508,0.62116 -1.03508,1.65623 v 1.03508 c 0,0.41403 0.0692,0.75906 0.20722,1.03508 2.07014,-0.13801 4.38181,-0.27592 6.93498,-0.41393 2.62218,-0.069 4.93385,-0.10335 6.93498,-0.10335 h 23.49572 c 0.89706,0 1.93216,0.0343 3.10524,0.10335 1.24208,0.069 2.44996,0.10335 3.62303,0.10335 1.17308,0.069 2.24253,0.13822 3.20859,0.20723 1.03507,0.069 1.8287,0.10335 2.38074,0.10335 0.41402,0 0.79341,-0.10356 1.13843,-0.31058 0.41403,-0.20701 0.6555,-0.7243 0.7245,-1.55236 0.34503,-2.48416 0.72441,-5.00295 1.13843,-7.55612 0.48304,-2.62218 1.00084,-5.03741 1.55288,-7.24556 l -1.44901,-0.62115 c -0.48303,-0.20701 -0.89727,-0.31057 -1.2423,-0.31057 -0.82805,0 -1.34534,0.27633 -1.55236,0.82837 -0.75905,2.00113 -1.55268,3.7263 -2.38073,5.17539 -0.75905,1.3801 -1.62189,2.51876 -2.58796,3.41582 -0.96606,0.89706 -2.1042,1.55226 -3.41529,1.96629 -1.24208,0.34502 -2.72578,0.51779 -4.45089,0.51779 h -3.93361 c -4.27829,0 -7.34872,-0.24147 -9.21184,-0.7245 -1.86313,-0.48303 -2.79467,-1.44944 -2.79467,-2.89853 v -50.51113 c 0,-1.38009 0.48295,-2.38084 1.44901,-3.00188 1.03507,-0.69005 3.03606,-1.242206 6.00325,-1.656234 0.69005,-0.207014 1.03508,-0.793518 1.03508,-1.759583 0,-0.207013 -0.0343,-0.517698 -0.10335,-0.931726 0,-0.414027 -0.0344,-0.793408 -0.10335,-1.138431 -1.10408,0.069 -2.3463,0.138217 -3.72639,0.207222 -1.31109,0.06901 -2.65687,0.137701 -4.03696,0.206706 -1.31109,0 -2.58766,0.03486 -3.82974,0.103869 h -3.31195 c -1.93213,0 -4.14023,-0.03486 -6.6244,-0.103869 -2.48416,-0.138009 -4.8307,-0.275919 -7.03885,-0.413928 z m 16.6517,3.642671 -0.0496,4.025593 c -3.16467,1.85248 -3.36676,7.46009 -2.14664,11.46493 0.10592,-1.18198 0.29951,-1.85114 0.51832,-2.20658 -0.34144,-0.56304 -0.41598,-2.47752 -0.31109,-2.80603 0.29837,0.67092 0.7409,1.30684 1.9699,1.75648 l 0.005,12.22768 0.005,12.22819 0.004,9.27644 c 0.88467,0.46747 1.34083,2.00305 1.34152,2.64893 -0.75183,-0.31128 -1.77375,-0.45465 -2.70577,-0.45165 l -0.005,7.95404 c 0.25334,-0.007 0.62267,-0.007 1.07797,-0.11627 -0.0968,0.3731 -0.5005,0.83456 -1.00304,0.92966 0.0332,0.0337 0.0537,0.0805 0.0537,0.13177 v 0.0501 c 0,0.0712 -0.0399,0.13283 -0.0982,0.16433 l 0.72502,1.67586 -1.56373,2.19212 -1.56941,-2.19212 0.72295,-1.67535 c -0.0589,-0.0314 -0.0992,-0.0931 -0.0992,-0.16484 v -0.0501 c 0,-0.0321 0.009,-0.0626 0.0227,-0.0889 -2.57677,-0.61492 -3.63994,-2.59506 -3.62924,-5.81515 0,-1.74837 0.40863,-4.18542 2.36368,-5.14336 0,-7.52989 0.012,-15.06448 0.001,-22.5919 -0.005,-3.29224 -0.88661,-5.9041 -2.02469,-6.25647 0.0126,-2.08014 -0.0504,-15.62626 6.39496,-17.167423 z m -62.815803,1.118795 c 3.795253,0 7.107672,0.897188 9.936861,2.691308 2.898193,1.72512 5.279076,4.14035 7.1422,7.24555 1.932129,3.03621 3.346609,6.65879 4.243668,10.86807 0.966065,4.20928 1.449008,8.76341 1.449008,13.66274 0,3.38122 -0.482943,6.55573 -1.449008,9.52293 -0.897059,2.9672 -2.208495,5.55469 -3.93361,7.76283 -1.65611,2.20815 -3.657094,3.96766 -6.003251,5.27875 -2.346156,1.24208 -4.967993,1.86345 -7.866186,1.86345 -3.519235,0 -6.659396,-0.86284 -9.41958,-2.58795 -2.760184,-1.79412 -5.106202,-4.2437 -7.038331,-7.34891 -1.863124,-3.17421 -3.311952,-6.93471 -4.347021,-11.282 -0.966064,-4.34729 -1.449524,-9.07419 -1.449524,-14.18053 0,-3.65724 0.517808,-6.93531 1.552877,-9.83351 1.035069,-2.89819 2.415201,-5.34777 4.140316,-7.3489 1.725115,-2.07014 3.726099,-3.62253 6.003251,-4.6576 2.277152,-1.10407 4.623169,-1.656228 7.03833,-1.656228 z m 62.787383,4.626078 c 4e-4,0.33693 0.0161,0.68407 0.0181,1.03042 0.003,0.66124 -0.0448,1.31927 -0.34882,1.89601 -0.12873,0.24419 -0.25162,0.41394 -0.28112,0.56173 -0.0394,0.15764 -0.0589,0.30031 -0.0589,0.42839 0,0.12808 0.003,0.25204 0.0258,0.37517 0.0332,0.17658 0.13195,0.47747 0.24184,0.58446 0.15107,0.14707 -0.092,0.0277 -0.35656,-0.17621 -0.44489,-0.39659 -0.80474,-0.96339 -0.82734,-1.62574 0.009,-1.15147 0.54344,-2.41854 1.58698,-3.07423 z m -2.15904,31.31488 c -0.01,1.20594 -0.16438,4.08244 -0.63717,4.49585 0.34478,0.28394 0.63417,0.88183 0.63717,1.71307 0.003,-0.82824 0.29704,-1.43419 0.64544,-1.71307 -0.47836,-0.41487 -0.64566,-3.2901 -0.64544,-4.49585 z m -0.80977,11.19518 c -1.13431,0.0747 -2.30469,1.16327 -2.40399,3.54139 -0.0877,2.09991 0.59949,3.7857 2.42983,4.24212 z m 0.80977,10.07794 -0.41393,0.55552 0.41599,0.66198 0.41393,-0.65836 z"
       transform="translate(1.960833,52.358065)" /></g></svg>
